<svg xmlns="http://www.w3.org/2000/svg" fill="#fff" viewBox="0 0 480 480">
  <path
    d="M448 376c-6 0-11 2-16 4v-36c0-4-4-8-8-8h-52c2-5 4-10 4-16a32 32 0 1 0-60 16h-52c-4 0-8 4-8 8v36c-5-2-10-4-16-4a32 32 0 1 0 16 60v36c0 4 4 8 8 8h160c4 0 8-4 8-8v-36c5 2 10 4 16 4a32 32 0 0 0 0-64zm0 48c-5 0-9-2-12-5-1-2-4-3-6-3h-6c-4 0-8 4-8 8v40H272v-40c0-4-4-8-8-8h-6c-2 0-5 1-6 3-3 3-7 5-12 5a16 16 0 0 1 0-32c5 0 9 2 12 5 1 2 4 3 6 3h6c4 0 8-4 8-8v-40h56c4 0 8-4 8-8v-6c0-2-1-5-3-6-3-3-5-7-5-12a16 16 0 0 1 32 0c0 5-2 9-5 12-2 1-3 4-3 6v6c0 4 4 8 8 8h56v40c0 4 4 8 8 8h6c2 0 5-1 6-3 3-3 7-5 12-5a16 16 0 0 1 0 32zM472 0H8C4 0 0 4 0 8v248c0 4 4 8 8 8h152c4 0 8-4 8-8v-48c0-4-4-8-8-8h-6c-2 0-5 1-6 3-3 3-7 5-12 5a16 16 0 0 1 0-32c5 0 9 2 12 5 1 2 4 3 6 3h6c4 0 8-4 8-8v-40h56c4 0 8-4 8-8v-6c0-2-1-5-3-6-3-3-5-7-5-12a16 16 0 0 1 32 0c0 5-2 9-5 12-2 1-3 4-3 6v6c0 4 4 8 8 8h56v40c0 4 4 8 8 8h6c2 0 5-1 6-3 3-3 7-5 12-5a16 16 0 0 1 0 32c-5 0-9-2-12-5-1-2-4-3-6-3h-6c-4 0-8 4-8 8v48c0 4 4 8 8 8h152c4 0 8-4 8-8V8c0-4-4-8-8-8zm-8 248H328v-28c5 2 10 4 16 4a32 32 0 1 0-16-60v-36c0-4-4-8-8-8h-52c2-5 4-10 4-16a32 32 0 1 0-60 16h-52c-4 0-8 4-8 8v36c-5-2-10-4-16-4a32 32 0 1 0 16 60v28H16V16h448v232z"
  />
  <path
    d="M238 162c-3-3-9-3-12 0l-32 32 12 12 18-19v77h16v-77l18 19 12-12-32-32zM224 280h16v16h-16zM224 312h16v16h-16zM224 344h16v16h-16zM48 280h16v16H48zM48 312h16v16H48zM48 344h16v16H48zM48 376h16v16H48zM48 408h16v16H48zM80 408h16v16H80zM112 408h16v16h-16zM144 408h16v16h-16zM176 408h16v16h-16z"
  />
</svg>
