<?xml version="1.0" encoding="UTF-8" ?>
<!DOCTYPE svg PUBLIC "-//W3C//DTD SVG 1.1//EN" "http://www.w3.org/Graphics/SVG/1.1/DTD/svg11.dtd">
<svg width="848pt" height="1075pt" viewBox="0 0 848 1075" version="1.1" xmlns="http://www.w3.org/2000/svg">
<g id="#ffffffff">
<path fill="#ffffff" opacity="1.00" d=" M 0.00 0.00 L 442.38 0.00 C 442.37 55.44 442.38 110.87 442.37 166.31 C 361.42 166.37 280.46 166.22 199.51 166.39 C 199.64 210.11 199.53 253.83 199.56 297.55 C 275.87 297.56 352.17 297.59 428.48 297.53 C 428.47 298.08 428.44 299.16 428.43 299.70 C 412.72 328.19 396.80 356.55 381.00 384.99 C 395.58 413.56 410.18 442.12 424.78 470.68 C 349.71 470.55 274.64 470.66 199.57 470.63 C 199.56 515.75 199.57 560.88 199.57 606.00 C 280.50 606.00 361.44 606.00 442.38 606.00 C 442.38 663.67 442.38 721.33 442.38 779.00 C 294.92 779.00 147.46 779.00 0.00 779.00 L 0.00 0.00 Z" />
<path fill="#ffffff" opacity="1.00" d=" M 332.15 861.29 C 344.00 861.34 355.84 861.29 367.69 861.31 C 367.70 894.06 367.68 926.80 367.70 959.55 C 380.06 947.55 392.42 935.56 404.71 923.49 C 420.93 923.37 437.15 923.46 453.37 923.44 C 436.81 939.10 419.89 954.38 403.19 969.90 C 420.93 987.97 438.77 1005.96 456.50 1024.05 C 439.92 1024.12 423.35 1023.99 406.77 1024.11 C 393.63 1010.58 380.76 996.79 367.69 983.19 C 367.71 996.78 367.64 1010.37 367.73 1023.97 C 355.86 1024.18 343.99 1024.00 332.12 1024.06 C 332.14 969.80 332.08 915.55 332.15 861.29 Z" />
<path fill="#ffffff" opacity="1.00" d=" M 677.69 861.41 C 689.62 861.17 701.57 861.37 713.50 861.32 C 713.54 915.52 713.42 969.72 713.57 1023.92 C 701.63 1024.25 689.69 1023.97 677.75 1024.06 C 677.75 1020.36 677.73 1016.67 677.78 1012.99 C 672.71 1019.17 665.85 1024.00 658.00 1025.86 C 645.07 1028.94 630.87 1026.59 619.76 1019.24 C 607.94 1011.64 599.88 998.87 597.30 985.14 C 594.07 968.45 597.87 950.05 609.15 937.07 C 619.09 925.40 634.75 919.18 649.99 920.39 C 660.51 920.84 670.45 925.74 677.78 933.19 C 677.67 909.27 677.85 885.34 677.69 861.41 M 650.44 951.61 C 642.45 953.46 636.04 960.09 633.84 967.91 C 631.18 977.73 635.92 989.11 645.01 993.84 C 652.95 998.09 663.41 997.25 670.38 991.46 C 675.48 987.18 678.89 980.70 678.89 973.98 C 678.97 967.51 676.00 961.19 671.32 956.81 C 665.82 951.69 657.68 949.78 650.44 951.61 Z" />
<path fill="#ffffff" opacity="1.00" d=" M 286.02 865.16 C 296.33 862.92 307.31 870.31 309.37 880.60 C 311.15 888.30 307.74 896.76 301.25 901.23 C 295.27 905.55 286.84 906.05 280.38 902.50 C 273.44 898.84 269.00 890.86 269.86 883.02 C 270.50 874.35 277.49 866.71 286.02 865.16 Z" />
<path fill="#ffffff" opacity="1.00" d=" M 38.86 922.82 C 52.77 918.56 68.10 918.55 81.93 923.12 C 94.16 927.18 104.49 936.52 109.52 948.41 C 113.92 958.21 115.06 969.11 114.82 979.75 C 89.91 979.76 65.00 979.74 40.09 979.76 C 40.12 987.00 41.98 995.30 48.57 999.38 C 58.32 1005.08 73.12 1003.58 79.15 993.19 C 90.58 993.17 102.02 993.20 113.45 993.17 C 110.06 1005.20 102.15 1016.26 90.72 1021.76 C 77.26 1028.21 61.60 1028.93 47.07 1026.40 C 31.94 1023.58 17.64 1014.47 10.43 1000.62 C 2.73 986.11 2.51 968.33 7.62 952.94 C 12.39 938.58 24.46 927.23 38.86 922.82 M 50.95 944.87 C 45.43 947.52 42.12 953.23 41.08 959.11 C 54.60 959.13 68.12 959.12 81.65 959.11 C 80.55 954.87 78.46 950.81 75.15 947.89 C 68.75 941.97 58.66 941.25 50.95 944.87 Z" />
<path fill="#ffffff" opacity="1.00" d=" M 190.53 921.58 C 206.99 917.52 225.21 922.95 237.00 935.08 C 255.94 953.98 257.56 987.02 241.11 1007.99 C 231.81 1020.31 216.43 1027.72 200.98 1027.16 C 189.68 1027.18 178.55 1022.51 170.68 1014.40 C 170.71 1034.32 170.67 1054.24 170.70 1074.16 C 158.84 1074.23 146.98 1074.17 135.12 1074.18 C 135.15 1023.93 135.07 973.67 135.16 923.41 C 147.00 923.47 158.84 923.42 170.68 923.43 C 170.70 927.03 170.66 930.63 170.72 934.23 C 175.90 928.19 182.70 923.40 190.53 921.58 M 186.57 951.68 C 175.42 954.49 167.79 966.72 170.06 977.98 C 172.00 989.68 184.32 998.20 195.95 996.27 C 205.29 995.05 212.96 987.21 214.85 978.12 C 216.43 970.07 213.42 961.14 206.88 956.07 C 201.31 951.49 193.54 949.81 186.57 951.68 Z" />
<path fill="#ffffff" opacity="1.00" d=" M 506.61 920.80 C 523.24 917.99 541.13 920.43 555.56 929.49 C 566.37 936.10 574.70 946.77 578.06 959.03 C 582.13 974.04 579.93 990.99 570.76 1003.75 C 562.18 1016.29 547.88 1023.95 533.12 1026.52 C 517.10 1029.28 499.84 1027.61 485.54 1019.48 C 473.33 1012.62 464.20 1000.57 460.87 986.98 C 457.73 974.12 458.86 959.94 465.55 948.36 C 473.87 933.30 489.92 923.68 506.61 920.80 M 514.11 951.19 C 504.28 953.42 496.78 962.95 496.72 972.99 C 496.50 981.88 501.83 990.75 509.97 994.43 C 517.81 998.09 527.73 996.86 534.31 991.19 C 539.24 986.90 542.39 980.51 542.48 973.94 C 542.66 967.29 539.62 960.75 534.76 956.28 C 529.29 951.28 521.27 949.44 514.11 951.19 Z" />
<path fill="#ffffff" opacity="1.00" d=" M 754.83 929.81 C 767.82 920.58 784.58 918.42 800.08 920.35 C 813.18 921.96 826.11 928.17 834.03 938.98 C 842.74 950.58 845.25 965.56 844.81 979.76 C 819.90 979.75 795.00 979.75 770.09 979.76 C 770.12 986.98 771.97 995.27 778.54 999.36 C 788.28 1005.09 803.11 1003.59 809.16 993.19 C 820.61 993.28 832.07 992.98 843.52 993.34 C 840.92 1001.06 837.21 1008.62 831.23 1014.31 C 823.69 1021.74 813.33 1025.63 802.97 1026.99 C 789.86 1028.68 776.09 1027.73 763.93 1022.23 C 753.80 1017.77 745.17 1009.90 740.12 1000.02 C 734.17 988.74 733.17 975.44 735.07 963.00 C 737.05 949.96 743.88 937.41 754.83 929.81 M 777.36 947.29 C 773.83 950.24 772.00 954.64 771.07 959.04 C 784.58 959.22 798.10 959.07 811.62 959.12 C 810.01 951.76 804.36 945.28 796.96 943.43 C 790.33 941.84 782.64 942.68 777.36 947.29 Z" />
<path fill="#ffffff" opacity="1.00" d=" M 272.15 923.42 C 284.00 923.46 295.84 923.42 307.68 923.43 C 307.72 956.95 307.65 990.47 307.72 1023.99 C 295.85 1024.15 283.99 1024.02 272.12 1024.06 C 272.14 990.51 272.08 956.96 272.15 923.42 Z" />
</g>
<g id="#ffb402ff">
<path fill="#ffb402" opacity="1.00" d=" M 595.44 0.00 L 847.49 0.00 C 768.60 128.29 689.85 256.67 611.00 384.99 C 680.12 500.56 749.27 616.11 818.41 731.68 C 828.32 748.01 837.82 764.61 848.00 780.78 L 848.00 780.84 C 759.77 781.20 671.52 780.93 583.29 780.97 C 530.50 677.52 477.60 574.12 424.78 470.68 C 410.18 442.12 395.58 413.56 381.00 384.99 C 396.80 356.55 412.72 328.19 428.43 299.70 C 430.02 298.36 430.32 296.13 431.42 294.43 C 486.13 196.31 540.70 98.10 595.44 0.00 Z" />
</g>
</svg>
