<svg viewBox="0 0 512 511" xmlns="http://www.w3.org/2000/svg" fill="#fff">
  <path
    d="M462 1H50C23 1 0 23 0 51v267c0 28 23 51 51 51h109l-10 42h-21c-22 0-40 18-40 40v14c0 4 4 7 8 7h74l-3 31a8 8 0 0 0 7 9h304a8 8 0 0 0 8-9l-6-55a8 8 0 1 0-15 1l5 48H359l-17-162c0-4-4-7-8-7h-83l6-65h33v17a8 8 0 0 0 15 0v-17h94v17a8 8 0 1 0 15 0v-17h33l16 160a8 8 0 1 0 15-1l-5-54c22-5 39-26 39-50V51c0-28-23-51-50-51zM176 369h6l-4 42h-13zm-72 88v-6c0-13 11-24 25-24h47l-3 30zm240 40H184l16-154h128zm-39-249v-18a47 47 0 0 1 94 0v18zm109 0v-18a62 62 0 0 0-124 0v18h-39c-4 0-8 3-8 7l-5 51H107a8 8 0 1 0 0 15h129l-1 7h-42c-4 0-7 3-7 7l-2 19H51c-19 0-34-15-36-33h66a8 8 0 1 0 0-15H15V51c0-20 16-35 35-35h412c19 0 35 15 35 35v255h-31l-5-51c0-4-4-7-8-7zm57 104l-3-31h29c-1 15-12 27-26 31zm0 0"
  />
  <path
    d="M241 95h-61V72a25 25 0 0 0-50 0v23H68c-10 0-18 8-18 18v12c0 8 6 15 13 18l10 79c2 15 15 27 31 27h101c16 0 29-12 31-27l11-79c7-3 12-10 12-18v-12c0-10-8-18-18-18zm0 15c2 0 3 1 3 3v12c0 2-1 3-3 3h-61v-18zm-96-38a10 10 0 0 1 19 0v82a10 10 0 0 1-19 0zm-80 41c0-2 2-3 3-3h62v18H68c-1 0-3-1-3-3zm156 107c-1 8-8 14-16 14H104c-8 0-15-6-16-14l-10-76h52v10a25 25 0 0 0 50 0v-10h51zm0 0M239 399v-32a8 8 0 1 0-15 0v32a40 40 0 0 0 80 0v-32a8 8 0 1 0-15 0v32a25 25 0 0 1-50 0zm0 0M328 78h-33a8 8 0 0 0 0 15h33a8 8 0 1 0 0-15zm0 0M361 93h106a8 8 0 1 0 0-15H361a8 8 0 1 0 0 15zm0 0M328 113h-33a8 8 0 1 0 0 15h33a8 8 0 0 0 0-15zm0 0M474 121c0-4-3-8-7-8H361a8 8 0 1 0 0 15h106c4 0 7-3 7-7zm0 0"
  />
</svg>
