<?xml version="1.0" encoding="UTF-8" ?>
<!DOCTYPE svg PUBLIC "-//W3C//DTD SVG 1.1//EN" "http://www.w3.org/Graphics/SVG/1.1/DTD/svg11.dtd">
<svg width="848pt" height="1075pt" viewBox="0 0 848 1075" version="1.1" xmlns="http://www.w3.org/2000/svg">
<g id="#a89db0ff">
<path fill="#a89db0" opacity="1.00" d=" M 0.00 0.00 L 442.38 0.00 C 442.38 55.44 442.38 110.87 442.38 166.31 C 361.44 166.32 280.50 166.30 199.56 166.32 C 199.57 210.07 199.56 253.81 199.56 297.56 C 276.13 297.62 352.71 297.46 429.28 297.64 C 429.03 298.23 428.51 299.41 428.26 300.00 C 412.62 328.40 396.71 356.66 381.00 385.02 C 395.59 413.57 410.17 442.12 424.77 470.67 C 349.70 470.57 274.63 470.65 199.56 470.63 C 199.56 515.75 199.56 560.88 199.56 606.00 C 280.50 606.00 361.44 606.00 442.38 606.00 C 442.38 663.67 442.38 721.33 442.38 779.00 C 294.92 779.00 147.46 779.00 0.00 779.00 L 0.00 0.00 Z" />
<path fill="#a89db0" opacity="1.00" d=" M 332.12 861.31 C 343.98 861.31 355.83 861.31 367.69 861.31 C 367.68 894.09 367.70 926.86 367.68 959.63 C 380.02 947.54 392.44 935.54 404.79 923.45 C 421.03 923.42 437.27 923.43 453.51 923.45 C 436.76 938.96 419.95 954.41 403.18 969.90 C 420.95 987.97 438.76 1005.99 456.52 1024.06 C 439.97 1023.99 423.41 1024.21 406.86 1023.95 C 393.47 1010.73 380.81 996.69 367.69 983.16 C 367.69 996.79 367.68 1010.42 367.69 1024.06 C 355.83 1024.06 343.98 1024.06 332.12 1024.06 C 332.13 969.81 332.12 915.56 332.12 861.31 Z" />
<path fill="#a89db0" opacity="1.00" d=" M 677.77 861.30 C 689.68 861.33 701.59 861.30 713.50 861.31 C 713.50 915.56 713.50 969.81 713.50 1024.06 C 701.58 1024.06 689.67 1024.06 677.75 1024.06 C 677.74 1020.36 677.73 1016.67 677.79 1012.99 C 673.02 1018.72 666.79 1023.39 659.55 1025.44 C 643.21 1030.08 624.62 1025.36 612.49 1013.46 C 591.63 993.68 590.74 957.20 610.04 936.07 C 620.02 925.01 635.24 919.20 650.06 920.40 C 660.55 920.87 670.51 925.74 677.78 933.24 C 677.72 909.26 677.74 885.28 677.77 861.30 M 650.41 951.61 C 642.44 953.48 636.03 960.10 633.84 967.90 C 631.24 977.52 635.71 988.63 644.44 993.53 C 652.49 998.16 663.39 997.38 670.52 991.35 C 675.54 987.06 678.91 980.63 678.89 973.96 C 678.97 967.23 675.75 960.66 670.72 956.27 C 665.23 951.54 657.40 949.85 650.41 951.61 Z" />
<path fill="#a89db0" opacity="1.00" d=" M 284.41 865.54 C 295.26 862.17 307.59 869.97 309.46 881.09 C 311.19 889.42 306.83 898.42 299.36 902.41 C 293.19 905.87 285.14 905.63 279.18 901.80 C 272.92 897.91 269.07 890.40 269.86 883.03 C 270.47 874.92 276.61 867.68 284.41 865.54 Z" />
<path fill="#a89db0" opacity="1.00" d=" M 23.06 931.13 C 36.24 920.81 53.94 918.30 70.17 920.36 C 83.47 922.00 96.58 928.43 104.45 939.54 C 112.85 951.07 115.20 965.78 114.83 979.75 C 89.90 979.76 64.97 979.74 40.03 979.76 C 40.29 985.66 41.16 992.06 45.30 996.62 C 50.41 1002.22 58.74 1003.27 65.89 1002.23 C 71.48 1001.46 76.15 997.77 79.23 993.19 C 90.65 993.18 102.07 993.18 113.50 993.19 C 110.55 1002.77 105.26 1011.93 97.02 1017.88 C 85.61 1026.29 70.82 1028.24 57.01 1027.62 C 41.47 1026.91 25.58 1020.70 15.62 1008.38 C 6.57 997.52 3.24 982.87 4.39 968.99 C 5.21 954.59 11.44 940.05 23.06 931.13 M 49.61 945.63 C 44.74 948.46 42.19 953.80 40.99 959.11 C 54.58 959.13 68.16 959.13 81.74 959.11 C 80.52 955.37 78.97 951.61 76.11 948.81 C 69.45 941.77 57.80 940.84 49.61 945.63 Z" />
<path fill="#a89db0" opacity="1.00" d=" M 189.84 921.76 C 206.45 917.37 225.00 922.77 236.96 935.03 C 256.09 954.09 257.58 987.56 240.70 1008.52 C 231.18 1020.79 215.58 1027.97 200.05 1027.13 C 189.05 1026.95 178.33 1022.25 170.66 1014.38 C 170.73 1034.31 170.66 1054.24 170.70 1074.17 C 158.84 1074.21 146.98 1074.17 135.12 1074.19 C 135.12 1023.94 135.12 973.69 135.12 923.44 C 146.98 923.44 158.83 923.44 170.69 923.43 C 170.69 927.07 170.69 930.71 170.68 934.36 C 175.66 928.40 182.25 923.69 189.84 921.76 M 186.54 951.68 C 175.38 954.51 167.77 966.76 170.07 978.03 C 172.02 989.68 184.29 998.17 195.88 996.28 C 205.24 995.09 212.97 987.25 214.84 978.14 C 216.44 970.10 213.44 961.20 206.94 956.12 C 201.36 951.49 193.55 949.80 186.54 951.68 Z" />
<path fill="#a89db0" opacity="1.00" d=" M 507.42 920.66 C 524.04 918.04 541.85 920.65 556.14 929.85 C 566.69 936.49 574.79 947.04 578.08 959.11 C 582.13 974.10 579.91 991.02 570.75 1003.76 C 562.19 1016.26 547.95 1023.91 533.23 1026.50 C 517.20 1029.29 499.92 1027.62 485.60 1019.51 C 473.36 1012.65 464.20 1000.60 460.87 986.98 C 457.66 973.93 458.91 959.52 465.84 947.85 C 474.38 932.82 490.63 923.35 507.42 920.66 M 514.13 951.19 C 503.96 953.48 496.31 963.58 496.72 973.97 C 496.88 982.63 502.27 991.09 510.27 994.56 C 518.03 998.05 527.74 996.80 534.24 991.25 C 538.96 987.17 542.08 981.19 542.44 974.93 C 542.96 967.69 539.65 960.43 534.17 955.76 C 528.73 951.14 521.03 949.51 514.13 951.19 Z" />
<path fill="#a89db0" opacity="1.00" d=" M 746.90 936.93 C 757.08 925.27 772.84 919.91 788.01 919.74 C 803.48 919.19 820.06 923.54 830.87 935.20 C 842.02 947.02 845.33 963.98 844.83 979.75 C 819.90 979.76 794.97 979.74 770.03 979.76 C 770.29 985.68 771.16 992.10 775.34 996.66 C 780.47 1002.24 788.82 1003.28 795.97 1002.21 C 801.53 1001.43 806.16 997.74 809.23 993.19 C 820.65 993.17 832.07 993.20 843.49 993.18 C 840.79 1001.91 836.24 1010.30 829.13 1016.21 C 819.45 1024.46 806.43 1027.40 793.99 1027.70 C 778.48 1028.29 762.18 1024.13 750.49 1013.51 C 741.05 1005.02 735.43 992.71 734.46 980.11 C 733.13 964.91 736.58 948.59 746.90 936.93 M 779.56 945.66 C 774.72 948.49 772.18 953.82 771.00 959.11 C 784.58 959.13 798.16 959.13 811.74 959.11 C 810.52 955.38 808.97 951.62 806.12 948.83 C 799.46 941.75 787.76 940.83 779.56 945.66 Z" />
<path fill="#a89db0" opacity="1.00" d=" M 272.12 923.43 C 283.98 923.44 295.83 923.44 307.69 923.43 C 307.69 956.98 307.69 990.52 307.69 1024.06 C 295.83 1024.06 283.98 1024.06 272.12 1024.06 C 272.13 990.52 272.12 956.98 272.12 923.43 Z" />
</g>
<g id="#ffb402ff">
<path fill="#ffb402" opacity="1.00" d=" M 595.50 0.00 L 847.55 0.00 C 768.56 128.25 689.87 256.68 611.00 385.00 C 685.50 509.52 760.00 634.05 834.50 758.57 C 839.07 765.80 842.89 773.52 848.00 780.39 L 848.00 780.70 C 835.69 781.35 823.34 780.83 811.02 781.00 C 735.12 781.00 659.22 781.01 583.32 780.99 C 530.48 677.54 477.62 574.11 424.77 470.67 C 410.17 442.12 395.59 413.57 381.00 385.02 C 396.71 356.66 412.62 328.40 428.26 300.00 C 484.15 200.08 539.57 99.89 595.50 0.00 Z" />
</g>
</svg>
