<?xml version="1.0" encoding="UTF-8" ?>
<!DOCTYPE svg PUBLIC "-//W3C//DTD SVG 1.1//EN" "http://www.w3.org/Graphics/SVG/1.1/DTD/svg11.dtd">
<svg width="848pt" height="1075pt" viewBox="0 0 848 1075" version="1.1" xmlns="http://www.w3.org/2000/svg">
<g id="#521281ff">
<path fill="#521281" opacity="1.00" d=" M 0.00 0.00 L 442.37 0.00 C 442.37 55.44 442.39 110.87 442.37 166.31 C 361.42 166.36 280.48 166.23 199.53 166.37 C 199.60 210.09 199.55 253.82 199.56 297.54 C 275.81 297.66 352.07 297.41 428.30 297.67 C 428.50 297.92 428.89 298.42 429.08 298.68 C 413.04 327.44 397.02 356.22 381.00 385.00 C 395.59 413.57 410.18 442.13 424.78 470.68 C 349.71 470.55 274.64 470.66 199.57 470.63 C 199.56 515.75 199.56 560.88 199.57 606.00 C 280.50 606.01 361.44 605.99 442.37 606.00 C 442.38 663.67 442.38 721.33 442.37 779.00 C 294.91 779.01 147.46 779.00 0.00 779.00 L 0.00 0.00 Z" />
<path fill="#521281" opacity="1.00" d=" M 332.14 861.30 C 343.99 861.32 355.84 861.30 367.69 861.31 C 367.71 894.03 367.65 926.74 367.72 959.46 C 380.17 947.57 392.42 935.48 404.76 923.48 C 420.92 923.40 437.09 923.43 453.26 923.46 C 436.82 939.20 419.83 954.37 403.19 969.90 C 420.90 987.98 438.76 1005.92 456.45 1024.03 C 440.28 1024.10 424.10 1024.05 407.93 1024.06 C 406.52 1024.32 405.69 1023.01 404.81 1022.21 C 392.48 1009.17 380.10 996.18 367.70 983.22 C 367.69 996.81 367.68 1010.41 367.70 1024.01 C 355.84 1024.12 343.98 1024.04 332.13 1024.06 C 332.13 969.80 332.10 915.55 332.14 861.30 Z" />
<path fill="#521281" opacity="1.00" d=" M 677.84 861.26 C 689.72 861.38 701.61 861.26 713.50 861.32 C 713.55 915.52 713.40 969.72 713.58 1023.91 C 701.64 1024.25 689.69 1023.97 677.76 1024.06 C 677.74 1020.35 677.73 1016.65 677.78 1012.96 C 673.06 1018.73 666.82 1023.35 659.61 1025.42 C 643.28 1030.08 624.70 1025.39 612.55 1013.52 C 591.44 993.58 590.71 956.57 610.55 935.52 C 620.99 924.28 636.89 918.78 652.06 920.58 C 661.85 921.43 670.90 926.27 677.78 933.19 C 677.77 909.21 677.65 885.23 677.84 861.26 M 650.48 951.60 C 642.49 953.44 636.07 960.04 633.86 967.85 C 631.22 977.48 635.69 988.63 644.45 993.54 C 652.49 998.15 663.37 997.38 670.50 991.37 C 675.52 987.09 678.89 980.66 678.88 973.99 C 678.98 967.48 675.96 961.10 671.22 956.71 C 665.73 951.67 657.67 949.80 650.48 951.60 Z" />
<path fill="#521281" opacity="1.00" d=" M 284.49 865.52 C 294.57 862.47 306.06 868.94 308.94 879.00 C 311.31 886.37 308.79 894.91 302.92 899.92 C 297.33 904.94 288.78 906.28 281.91 903.24 C 274.47 900.11 269.34 892.16 269.79 884.06 C 269.97 875.54 276.30 867.72 284.49 865.52 Z" />
<path fill="#521281" opacity="1.00" d=" M 23.07 931.12 C 36.21 920.83 53.85 918.32 70.03 920.34 C 83.16 921.95 96.12 928.16 104.05 939.00 C 112.75 950.60 115.24 965.56 114.81 979.75 C 89.90 979.76 64.99 979.73 40.08 979.76 C 40.23 985.90 41.29 992.61 45.81 997.15 C 50.99 1002.30 58.96 1003.22 65.88 1002.23 C 71.45 1001.44 76.18 997.82 79.18 993.19 C 90.61 993.17 102.04 993.19 113.47 993.19 C 110.59 1002.78 105.25 1011.90 97.04 1017.87 C 85.62 1026.29 70.81 1028.24 56.97 1027.62 C 41.44 1026.90 25.57 1020.68 15.61 1008.38 C 6.57 997.52 3.24 982.89 4.39 969.01 C 5.20 954.60 11.43 940.05 23.07 931.12 M 50.95 944.87 C 45.42 947.50 42.17 953.21 41.06 959.05 C 54.57 959.22 68.10 959.08 81.62 959.12 C 80.57 954.86 78.45 950.81 75.15 947.88 C 68.74 941.98 58.65 941.24 50.95 944.87 Z" />
<path fill="#521281" opacity="1.00" d=" M 189.88 921.75 C 206.48 917.38 225.00 922.78 236.94 935.02 C 255.92 953.90 257.57 986.96 241.14 1007.96 C 231.66 1020.55 215.84 1027.97 200.09 1027.13 C 189.09 1026.97 178.40 1022.27 170.69 1014.45 C 170.73 1034.31 170.60 1054.17 170.76 1074.03 C 158.89 1074.38 147.00 1074.10 135.12 1074.18 C 135.13 1023.93 135.10 973.68 135.14 923.43 C 146.99 923.44 158.83 923.43 170.68 923.43 C 170.70 927.00 170.66 930.56 170.73 934.13 C 175.86 928.40 182.31 923.62 189.88 921.75 M 186.52 951.69 C 174.87 954.64 167.20 967.84 170.37 979.43 C 173.10 990.80 185.62 998.56 197.03 996.08 C 205.91 994.46 213.01 986.85 214.85 978.15 C 216.43 970.10 213.45 961.19 206.93 956.11 C 201.34 951.49 193.52 949.79 186.52 951.69 Z" />
<path fill="#521281" opacity="1.00" d=" M 507.47 920.65 C 524.31 918.01 542.40 920.74 556.76 930.26 C 566.97 936.87 574.77 947.18 578.03 958.93 C 582.06 973.70 580.04 990.38 571.21 1003.09 C 563.05 1015.42 549.39 1023.24 535.09 1026.14 C 518.73 1029.39 500.96 1027.96 486.17 1019.83 C 474.00 1013.21 464.77 1001.48 461.16 988.11 C 457.60 974.76 458.71 959.87 465.84 947.86 C 474.38 932.81 490.65 923.34 507.47 920.65 M 514.16 951.18 C 504.32 953.39 496.80 962.90 496.72 972.95 C 496.49 981.77 501.71 990.57 509.74 994.32 C 517.38 998.00 527.07 996.99 533.71 991.69 C 539.00 987.40 542.39 980.76 542.48 973.92 C 542.66 967.25 539.60 960.69 534.71 956.22 C 529.24 951.27 521.29 949.46 514.16 951.18 Z" />
<path fill="#521281" opacity="1.00" d=" M 754.25 930.23 C 767.31 920.65 784.37 918.38 800.12 920.35 C 813.23 921.97 826.17 928.20 834.08 939.04 C 842.75 950.63 845.24 965.58 844.82 979.75 C 819.90 979.76 794.99 979.74 770.08 979.76 C 770.16 986.78 771.80 994.75 777.97 998.98 C 787.71 1005.20 802.97 1003.75 809.18 993.19 C 820.57 993.14 831.97 993.26 843.36 993.13 C 840.73 1002.84 835.16 1011.93 826.98 1017.91 C 819.45 1023.50 810.17 1026.25 800.94 1027.24 C 789.56 1028.42 777.80 1027.65 767.05 1023.52 C 756.70 1019.67 747.51 1012.49 741.79 1002.99 C 734.78 991.73 733.13 977.92 734.78 964.96 C 736.40 951.46 743.05 938.25 754.25 930.23 M 780.33 945.21 C 775.13 947.93 772.18 953.44 771.05 959.01 C 784.58 959.25 798.12 959.07 811.66 959.11 C 810.57 955.11 808.71 951.23 805.66 948.36 C 799.13 941.89 788.29 941.04 780.33 945.21 Z" />
<path fill="#521281" opacity="1.00" d=" M 272.14 923.43 C 283.99 923.45 295.83 923.43 307.68 923.44 C 307.71 956.96 307.67 990.49 307.70 1024.01 C 295.84 1024.12 283.98 1024.04 272.13 1024.06 C 272.13 990.51 272.10 956.97 272.14 923.43 Z" />
</g>
<g id="#ffb402ff">
<path fill="#ffb402" opacity="1.00" d=" M 595.45 0.00 L 847.50 0.00 C 768.60 128.29 689.84 256.67 611.00 385.01 C 682.88 505.14 754.75 625.28 826.62 745.42 C 833.78 757.22 840.66 769.20 848.00 780.89 L 848.00 780.89 C 759.76 781.13 671.52 780.97 583.28 780.97 C 530.50 677.51 477.60 574.12 424.78 470.68 C 410.18 442.13 395.59 413.57 381.00 385.00 C 397.02 356.22 413.04 327.44 429.08 298.68 C 484.54 199.12 539.91 99.51 595.45 0.00 Z" />
</g>
</svg>
