<?xml version="1.0" encoding="UTF-8" ?>
<!DOCTYPE svg PUBLIC "-//W3C//DTD SVG 1.1//EN" "http://www.w3.org/Graphics/SVG/1.1/DTD/svg11.dtd">
<svg viewBox="0 0 848 780" version="1.1" xmlns="http://www.w3.org/2000/svg">
<g id="#ffffffff">
<path fill="#ffffff" opacity="1.00" d=" M 0.00 0.00 L 442.38 0.00 C 442.37 55.44 442.38 110.87 442.37 166.31 C 389.93 166.32 337.48 166.31 285.04 166.31 C 256.51 166.44 227.96 166.06 199.44 166.51 C 199.71 210.17 199.51 253.85 199.54 297.51 C 275.85 297.60 352.16 297.57 428.46 297.53 C 428.46 298.07 428.44 299.14 428.44 299.68 C 412.75 328.18 396.81 356.55 381.00 384.98 C 395.60 413.57 410.19 442.17 424.83 470.74 C 349.75 470.47 274.66 470.70 199.57 470.63 C 199.57 515.75 199.54 560.88 199.59 606.00 C 280.51 605.99 361.44 606.00 442.37 606.00 C 442.38 663.67 442.38 721.33 442.37 779.00 C 294.91 779.00 147.46 779.00 0.00 779.00 L 0.00 0.00 Z" />
</g>
<g id="#ffb402ff">
<path fill="#ffb402" opacity="1.00" d=" M 595.41 0.00 L 847.48 0.00 C 768.62 128.31 689.83 256.67 611.00 385.00 C 682.74 504.93 754.50 624.86 826.24 744.78 C 833.56 756.71 840.36 768.97 848.00 780.69 L 848.00 780.78 C 822.33 781.29 796.63 780.85 770.95 781.00 C 708.39 780.97 645.83 781.06 583.27 780.95 C 530.52 677.51 477.60 574.17 424.83 470.74 C 410.19 442.17 395.60 413.57 381.00 384.98 C 396.81 356.55 412.75 328.18 428.44 299.68 C 484.21 199.87 539.71 99.86 595.41 0.00 Z" />
</g>
</svg>
