<svg version="1" xmlns="http://www.w3.org/2000/svg" width="1600" height="1600" viewBox="0 0 1200.000000 1200.000000"><path d="M325.3 153.7c-4.5 6.1-4.7 6.4-6.5 8.4-1 1-1.8 2.2-1.8 2.5 0 .3-1.6 2.5-3.5 4.8-1.9 2.4-3.5 4.8-3.5 5.5 0 .6-.3 1.1-.7 1.1-.5.1-2.5 2.4-4.6 5.3-9 12.2-24.7 33.3-25.6 34.4-.6.7-1.1 1.5-1.1 1.8 0 .3-1.3 2-3 3.8-1.6 1.8-3 3.5-3 3.8 0 .4-10.1 14.3-12.8 17.4-.4.5-.9 1.4-.9 1.8-.1.5-1 1.6-2 2.5-1 .9-2.4 2.9-3.2 4.4-.8 1.6-1.8 2.8-2.2 2.8-.4 0-2.1 2.2-3.9 5-1.8 2.7-3.6 5-4.2 5-.5 0-.6.5-.3 1 .3.6-.1 1.3-.9 1.6-.8.3-1.8 1.4-2.1 2.3-.3 1-1.3 2.6-2.3 3.7-1 1-2.8 3.5-4.2 5.4-1.3 1.9-2.7 3.7-3 4-.3.3-2.5 3.2-4.9 6.5-2.5 3.3-4.8 6.1-5.3 6.3-.4.2-.8.8-.8 1.4 0 .6-1.7 3.2-3.7 5.8-2.1 2.6-4.5 5.8-5.3 7-.8 1.2-2 2.8-2.5 3.4-.6.6-2.6 3.3-4.5 6.1-1.9 2.7-3.8 5.2-4.1 5.5-.3.3-3.8 5-7.9 10.5-4 5.5-7.7 10.1-8.2 10.3-.4.2-.8.7-.8 1.2s-4.4 6.7-9.7 13.8c-5.4 7.2-10.5 14-11.3 15.2-.8 1.2-2.2 3-3 4-.8 1-2.3 2.9-3.2 4.2-2.8 3.9-23.8 32.1-25.8 34.8-1 1.4-4.7 6.3-8.1 11-3.5 4.7-6.8 8.8-7.4 9.2-.5.4-.6.8-.1.8s0 .8-1 1.7c-1 1-3.4 4-5.3 6.8-1.9 2.7-4.1 5.7-4.8 6.5-.8.8-3.5 4.4-6.1 8-2.5 3.6-5.1 6.8-5.7 7.2-.6.5-.6.8 0 .8s.6.3 0 .8c-1.2.8-14.5 18-14.5 18.7 0 .5-2.5 3.7-4.8 6-.6.8-1.2 1.6-1.2 2 0 .4-.6 1.2-1.3 2-.6.7-2.1 2.5-3.2 4.1-1.1 1.5-2.6 3.3-3.2 4-.7.7-1.3 1.5-1.3 1.8 0 .6-8.9 12.6-10 13.6-.3.3-4.1 5.4-8.3 11.5-4.2 6-8 11.4-8.5 12-.4.5-2.2 3.2-4 6-1.8 2.7-3.7 5.7-4.2 6.5-.6.8-4.2 6.2-8 12-9 13.6-8.3 12.5-13.4 20l-4.5 6.4 2.2 3.6c1.2 1.9 2.9 4.3 3.8 5.4 1 1 3 3.8 4.5 6.2 1.5 2.4 3.2 4.4 3.6 4.4.4 0 .8.7.8 1.5s.5 1.5 1 1.5c.6 0 1 .7 1 1.5s.4 1.5.8 1.5 1.5 1.2 2.4 2.7c.9 1.6 2.6 3.9 3.7 5.3 4.3 5.5 9 11.9 10 13.8.6 1.1 1.7 2.6 2.4 3.4.7.7 2.4 2.9 3.7 4.8 1.3 1.9 3 4.1 3.7 4.8.7.7 1.3 1.7 1.3 2.1 0 .4.8 1.6 1.9 2.7 1 1.1 2.4 3 3 4.3.7 1.2 1.9 3 2.8 3.9.8.9 7.5 10 14.8 20.2 7.4 10.2 13.9 19.1 14.5 19.8.6.6.8 1.2.5 1.2-.3 0 .5 1.1 1.9 2.4 1.5 1.3 2.6 2.6 2.6 2.9 0 .4 9.3 13.4 20.6 28.9 11.3 15.6 21.2 29.2 22 30.3 4.3 6.1 12.5 17.4 14.3 19.7 1.2 1.4 2.1 3.1 2.1 3.6 0 .6.4 1.2.9 1.4 1.1.4 18.1 23.6 18.1 24.8 0 .4.3 1 .8 1.2.4.1 3.8 4.6 7.6 9.8 3.8 5.2 7.3 9.7 7.7 9.8.5.2.9.8.9 1.4 0 .6 1 2.3 2.3 3.8 1.2 1.5 2.9 3.7 3.7 4.9 1.5 2.3 8.4 11.8 9.8 13.6.4.5 2.3 3.2 4.2 6 1.9 2.7 4 5.6 4.7 6.3.7.7 2 2.6 3 4.2.9 1.7 2.1 3 2.5 3 .4 0 .8.7.8 1.5s.3 1.5.8 1.5c.4 0 1.8 1.8 3.2 4 1.4 2.2 2.8 4 3.2 4 .5 0 .8.5.8 1 0 .6 2.2 4 5 7.5 2.7 3.5 5 6.9 5 7.5 0 .5.4 1 .8 1 .5 0 2.3 2.1 4 4.7 1.7 2.7 3.8 5.7 4.7 6.8.8 1.1 5.5 7.4 10.3 14 4.7 6.6 9 12.1 9.4 12.3.5.2.8 1 .8 1.7s1.2 2.7 2.8 4.3c1.5 1.7 5.2 6.6 8.2 10.9 3 4.3 5.8 8.2 6.3 8.8 5.4 7.1 10.7 14.6 10.7 15.5 0 .5.4 1 .9 1s2 1.7 3.2 3.7c1.3 2.1 2.6 4 2.9 4.3.3.3 1.7 2.1 3 4 1.4 1.9 2.8 3.9 3.2 4.5 3.3 4.1 12.8 17.4 12.8 17.9 0 .3.8 1.4 1.8 2.4.9 1 3.8 4.8 6.4 8.5l4.8 6.7h544.5l1.4-2.3c1.2-1.9 21.3-29.6 23.4-32.2.4-.6 3.5-4.8 6.9-9.5 3.4-4.7 6.4-8.7 6.7-9 .3-.3 2.6-3.4 5-7 2.5-3.6 5.6-7.9 7-9.6 1.4-1.7 4.4-5.7 6.6-8.8 2.2-3.2 4.6-6.4 5.2-7.1.7-.8 1.3-1.6 1.3-1.9 0-.6 2.4-3.6 4.7-6.1.7-.8 1.3-1.7 1.3-2.2 0-.5 1.2-2.3 2.8-4 1.5-1.7 3.8-4.8 5.2-6.8 1.4-2 3.1-4.2 3.8-5 .6-.7 1.2-1.8 1.2-2.3 0-.6.4-1.2.9-1.4.7-.3 10.5-13.3 15.1-20.1.8-1.2 3.1-4.3 5.2-6.8 2.1-2.6 3.8-5.2 3.8-5.8 0-.6.5-1.1 1-1.1.6 0 1-.7 1-1.5s.3-1.5.8-1.5c.4 0 1.8-1.7 3.2-3.7 1.4-2 3-4.1 3.5-4.7.6-.6 2.6-3.4 4.5-6.1 1.9-2.8 3.9-5.5 4.5-6.2.5-.6 2.1-2.8 3.5-4.8 1.4-2.1 3.3-4.6 4.3-5.6.9-1 1.4-1.9 1-1.9-.5 0-.3-.4.2-.8.6-.4 5.7-7 11.3-14.7 5.6-7.7 10.5-14.5 10.9-15 .4-.6 2.4-3.2 4.3-5.8 1.9-2.7 5.2-7 7.3-9.7 2-2.7 3.7-5.4 3.7-5.9s.4-1.1.8-1.3c.5-.2 8.3-10.4 17.3-22.8 19.8-27.2 25.5-34.9 27.4-37.3.8-.9 1.5-2.1 1.5-2.7 0-.5.6-1.3 1.3-1.7.7-.4 3-3.4 5.1-6.5 2.1-3.2 4.7-6.6 5.7-7.7 1.1-1.1 1.9-2.5 1.9-3.1 0-.5.3-1 .8-1 .4 0 2.5-2.7 4.7-6s4.3-6 4.7-6c.5 0 .8-.4.8-1 0-.5.7-1.8 1.5-2.7 2-2.5 17.8-24.1 19-26.1.6-.9 1.8-2.5 2.8-3.6 1-1.2 2.8-3.7 4-5.6 1.2-1.9 2.6-4 3.3-4.5.6-.6 2.6-3.2 4.5-6 1.9-2.7 3.9-5.6 4.6-6.5 3.6-4.6 11.3-15.2 11.3-15.5 0-.5 2.7-4 5.3-6.7.9-1 1.7-2 1.7-2.2 0-.9 11.2-16.1 12.1-16.4.5-.2.9-1 .9-1.7s.3-1.5.8-1.7c.4-.2 1.9-2 3.5-4.1 1.5-2 3.8-5.2 5.2-7l2.5-3.3-3.7-6c-2.1-3.2-4.1-6.4-4.6-6.9-.4-.6-11.1-16.5-23.7-35.5s-23.3-35-23.8-35.6c-.5-.5-1.4-2-2.1-3.1-.6-1.2-1.7-2.7-2.4-3.5-.7-.7-4.6-6-8.7-11.6-4.1-5.7-9.6-13.4-12.3-17-2.6-3.6-5.5-7.7-6.5-9.1-.9-1.3-2.5-3.2-3.4-4.3-1-1-1.8-2-1.8-2.3 0-.8-8.4-11.9-9.2-12.3-.5-.2-.8-1-.8-1.8s-.7-1.7-1.5-2c-.8-.4-1.5-1-1.5-1.5 0-.8-10.5-15.6-12.1-16.9-.3-.3-2.1-2.8-3.9-5.5-1.9-2.8-3.7-5.2-4.2-5.3-.4-.2-.8-1-.8-1.8s-.4-1.4-1-1.4c-.5 0-1-.5-1-1.1 0-.6-.6-1.6-1.2-2.3-.7-.7-2.1-2.4-3-3.7-1-1.3-3.6-4.9-5.8-7.9-2.2-3-4.4-6-5-6.7-.5-.7-1-1.6-1-2.2 0-.5-.5-1.1-1-1.3-.6-.2-2.9-3-5.3-6.4-5.5-8-16.6-23.4-17.8-24.8-.6-.6-10.5-14.2-22-30.1-11.6-16-21.8-30-22.7-31.2-.9-1.2-2.4-3.1-3.2-4.3-1.6-2.4-23.4-32.3-26.3-36.1-4.5-6.1-20.9-28.7-22.4-30.9-2.4-3.5-9.7-13.4-10.3-14-.3-.3-1.3-1.6-2.2-3-1-1.4-3.5-5-5.8-8-2.2-3-5.1-7.2-6.5-9.3-1.4-2-3.2-4.5-4-5.5-5.3-6.5-14.5-19.3-14.5-20.1 0-.5-.4-1.1-.8-1.3-.4-.2-2.3-2.5-4.2-5.3-1.9-2.7-4-5.6-4.7-6.3-.7-.7-2-2.6-3-4.2l-1.7-3H328.1l-2.8 3.7zm515 13.8c-.3.9-.8 1.4-1 1.1-.3-.3-.2-.9.2-1.5.9-1.6 1.5-1.3.8.4zm-.2 17.8c-1 .9-1.1.8-.5-.6.3-1 .9-1.5 1.2-1.2.3.3 0 1.1-.7 1.8zm.2 142.2c-.3.9-.8 1.4-1 1.1-.3-.3-.2-.9.2-1.5.9-1.6 1.5-1.3.8.4zm-266.8 22.7c.6-.7 21.5-.3 22.5.3.5.3 1.1.2 1.3-.2.3-.5 18.4-.6 40.2-.3 21.8.3 39.8.3 40.1.1.3-.3 20-.3 22.2 0 .4.1 1.2.1 1.7-.1 2.2-.4 21.8 0 22.5.5.5.3 1.1.2 1.3-.2.3-.5 4.8-.7 10.1-.5 7.7.3 9.6.6 9.6 1.8 0 .8.5 1.2 1 .9.6-.3 1 .1 1 .9 0 .9.5 1.6 1 1.6.6 0 1 .7 1 1.5s.4 1.5.9 1.5 2.8 2.7 5.2 6c2.4 3.3 4.7 6 5.2 6 .4 0 .7.6.7 1.4 0 .8.3 1.6.8 1.8.4.1 2.5 2.5 4.7 5.3 2.2 2.7 4.6 5.8 5.5 6.7.8 1 2.3 2.8 3.2 4 3.2 4.3 8.9 11.3 11.3 14.1 1.4 1.5 2.5 3 2.5 3.3 0 .4 1.2 2.1 2.8 3.8 1.5 1.7 4.1 4.9 5.7 7 1.7 2.1 3.5 4.4 4 5 .6.6 2.2 2.7 3.6 4.6 1.5 1.9 3.6 4.6 4.8 6 2.9 3.5 3.3 4 6.6 8.5 1.7 2.2 3.5 4.4 4.1 5 .6.5 2.6 3 4.5 5.5 1.8 2.5 3.6 4.7 3.9 5 .3.3 1.9 2.3 3.6 4.5 1.6 2.2 3.5 4.6 4.1 5.3.7.7 3.4 4.1 6 7.5 2.6 3.4 5.2 6.7 5.8 7.3.5.6 2.1 2.6 3.5 4.4 2.7 3.7 7.2 9.2 8 10 .3.3 2.5 3.2 5 6.5 2.5 3.2 5.2 6.7 6 7.6 3.9 4.4 6 7.1 6 7.9 0 .5.3 1 .8 1.2.4.1 3.2 3.4 6.2 7.3 3 3.8 6.3 7.9 7.2 9 3.9 4.7 41.7 52.5 45.7 57.7 2.4 3.2 4.7 5.8 5.1 5.8 2.1 0 1.5 4-.9 6.6-1.4 1.6-3.3 3.8-4.1 5-2 2.8-18.1 22.8-18.9 23.4-.3.3-1.9 2.3-3.6 4.5-1.6 2.2-3.2 4.2-3.5 4.5-.3.3-2.4 2.7-4.5 5.5-2.2 2.7-4.4 5.5-5 6.1-.5.6-2.3 2.8-4 4.9-1.6 2.1-3.6 4.4-4.2 5.1-.7.7-1.3 1.7-1.3 2.2 0 .6-.4 1.2-.9 1.4-.6.2-18.1 21.5-23.3 28.3-.4.5-2.6 3.2-4.9 6-5.9 7.2-6.8 8.3-13.4 16.5-3.2 4.1-6.3 7.6-6.7 7.8-.4.2-.8.9-.8 1.5-.1.7-1.9 3-4 5.2-2.2 2.2-4 4.3-4 4.7 0 .5-.8 1.6-1.7 2.6-1 1-3.1 3.5-4.8 5.6-4.4 5.8-9.6 12-10.4 12.6-.4.3-1.8 2.1-3.1 4s-2.7 3.7-3 4c-.3.3-3.3 3.9-6.5 8-3.3 4.1-6.5 8.1-7.3 9-.7.8-3.6 4.4-6.5 8-2.8 3.6-5.4 6.7-5.7 7-.3.3-3.9 4.8-8 10s-7.9 10-8.5 10.6c-.5.6-2.2 2.6-3.7 4.5-1.4 1.9-3.7 4.6-5 6.1-1.2 1.5-5.2 6.5-8.8 11.2-3.6 4.7-7 8.3-7.7 8.1-.6-.2-1.3-.2-1.5.1-.3.2-14.2.6-30.9.9-16.7.3-38.9.8-49.4 1-10.4.3-28.2.7-39.5 1-11.3.2-29.8.7-41.2.9l-20.7.6.4-17.3c.6-23.1 1.4-55.5 2.1-81.7.3-11.8.6-29 .7-38.2.1-9.3.5-16.8.9-16.8s.5-.7.2-1.5c-.5-1.1-.2-1.3 1.2-.8 1.6.6 6.2.8 8.2.3 1.7-.4 8.3-.2 8.8.3.3.3 1.8.2 3.3-.3 1.5-.4 3.5-.3 4.4.2 1.2.6 1.7.5 1.7-.3s.3-.9 1.3 0c.8.6 1.6.8 1.9.5.6-.5 2.9-.6 17.8-.4 4.1.1 8 0 8.5 0 .6-.1 2.8-.2 5-.1 9.2.1 26.1.2 27 0 2.7-.3 8.7-.1 9.1.4.3.3 1.8.2 3.3-.3 1.5-.4 3.5-.3 4.4.2 1.2.6 1.7.5 1.7-.3s.3-.9 1.3 0c.8.6 1.6.8 1.9.5.6-.5 2.9-.6 17.8-.4 4.1.1 8 0 8.5 0 2.6-.4 8.6-.2 9.1.3.3.3 1.8.2 3.3-.3 1.5-.4 3.5-.3 4.4.2 1.2.6 1.7.5 1.7-.3s.3-.9 1.3 0c.8.6 1.6.8 1.9.5.6-.5 2.9-.6 17.8-.4 4.1.1 8 0 8.5 0 .6-.1 2.8-.1 5-.1 6.8.2 12.8 0 13.6-.5.4-.2 1 0 1.4.6.4.6 1.1.8 1.6.4.9-.5 2.9-.6 17.9-.4 4.1.1 8 0 8.5 0 .6-.1 2.8-.1 5-.1 6.6.2 12.9 0 13.4-.4.2-.2 1.2 0 2.3.6 1.4.7 2.3.7 3.4-.2.8-.6 1.4-.8 1.4-.3s.4.2.9-.5c.6-.9.6-2.2 0-3.2-.5-1.1-.5-2 0-2.4.6-.3.6-1.7.1-3.5s-.5-3.2.1-3.5c.5-.4.5-1.4-.1-2.5-.7-1.3-.7-2.1 0-2.5.8-.5.8-1.1.1-1.9-.6-.7-.8-1.5-.5-1.9.9-.8 1.1-7.6.2-9-.3-.6-.3-1.8.2-2.8.5-.9.6-1.9.3-2.3-.8-.8-.8-8.5.1-9.3.3-.3.1-1.2-.5-1.9-.7-.8-.7-1.4.1-1.9.7-.4.7-1.2 0-2.5-.6-1.1-.6-2.1-.1-2.5.6-.3.6-1.7.1-3.5s-.5-3.2.1-3.5c.5-.4.5-1.4-.1-2.5-.7-1.3-.7-2.1 0-2.5.7-.5.8-1.1.1-1.9-.5-.6-.7-1.7-.3-2.3.8-1.3.7-8.1-.2-9-.3-.3-.1-1.3.4-2.3.5-1 .6-2 .3-2.4-.8-.8-.8-8.5.1-9.3.3-.3.1-1.2-.5-1.9-.7-.8-.7-1.4.1-1.9.7-.4.7-1.2 0-2.5-.6-1.1-.6-2.1-.1-2.5.6-.3.6-1.7.1-3.5s-.5-3.2.1-3.5c.5-.4.5-1.4-.1-2.5-.7-1.3-.7-2.1 0-2.5.8-.5.8-1.1.1-1.9-.6-.7-.8-1.6-.5-1.9.9-.8.9-8.5.1-9.3-.3-.4-.2-1.4.3-2.3.5-1 .5-2.3.1-2.9-.4-.7-.5-3.3-.1-5.8.4-2.4.3-4.7-.2-5-.4-.3-.4-1.3.1-2.3.5-.9.6-2.3.2-2.9-.4-.7-.5-3.3-.1-5.8.4-2.4.3-4.7-.2-5-.4-.3-.4-1.3.1-2.3.5-.9.6-2.3.2-2.9-.4-.7-.5-3.3-.1-5.8.4-2.4.3-4.7-.2-5-.4-.3-.4-1.3.1-2.3.5-.9.6-2.3.2-2.9-.4-.7-.5-3.3-.1-5.8.4-2.4.3-4.7-.1-5-.5-.2-.4-1.6.1-2.9.6-1.6.6-2.5 0-2.5-.5 0-.7-.7-.4-1.5.5-1.3-14.5-1.5-131.4-1.5h-132l-.2-8.3c-.1-4.5-.2-9.6-.1-11.2V463v-13.8c.1-.6.1-1.8.2-2.5v-14.2c0-7.2 0-17.8.2-23.7.1-6 0-10.8-.3-10.8-.4 0-.4-23.3 0-45.7 0-2.6 1.8-3.1 8.3-2.3 2.6.4 4.9.4 5.2.2zM328.1 525.7V538c.1.8.1 3.3 0 5.5s-.1 4.8-.1 5.7c.1 1 .1 3.8.1 6.3v64c0 11.8.1 30.2 0 31 0 .5-.2 7.5-.5 15.5-.4 14.2-1 17.8-2.9 19.1-.9.7-28-31.9-30.2-36.1-.5-1.1-1.3-2-1.6-2-.3 0-3.4-3.6-6.9-8-3.5-4.4-6.7-8-7.2-8s-.7-.4-.4-.9c.4-.5.3-1.1-.1-1.3-.5-.1-2.8-2.8-5.3-5.8s-4.8-5.7-5.2-5.8c-.5-.2-.8-.8-.8-1.4 0-.6-.8-1.8-1.8-2.7-.9-.9-3-3.4-4.7-5.6-1.6-2.2-3.4-4.3-3.9-4.8-.7-.5-.5-1.2.7-2.1.9-.7 1.7-1.6 1.7-2 0-.6 6.2-8.2 14.3-17.6 1.6-1.9 4.8-5.9 7.1-8.8 2.2-2.8 4.4-5.2 4.8-5.2.5 0 .8-.6.8-1.3 0-.6 1.5-2.7 3.2-4.6 1.8-1.9 7.4-8.7 12.5-15 5.2-6.4 10.8-13.3 12.6-15.4 3.8-4.4 4.1-4.8 9-11 2.1-2.6 4.1-4.7 4.3-4.7.3 0 .5 4.8.5 10.7zm512 379.6c-1 .9-1.1.8-.5-.6.3-1 .9-1.5 1.2-1.2.3.3 0 1.1-.7 1.8zm0 48c-1 .9-1.1.8-.5-.6.3-1 .9-1.5 1.2-1.2.3.3 0 1.1-.7 1.8z"/></svg>