<svg version="1" xmlns="http://www.w3.org/2000/svg" fill="#fff" viewBox="0 0 480 480">
  <path
    d="M479 396l-59-88 10-3a8 8 0 0 0 6-11l-18-46 36-34a8 8 0 0 0 0-12l-36-34 18-46a8 8 0 0 0-6-11l-48-15-4-49a8 8 0 0 0-9-7l-50 7-26-43a8 8 0 0 0-11-3l-42 28-42-28a8 8 0 0 0-11 3l-26 43-50-7a8 8 0 0 0-9 7l-4 49-48 15a8 8 0 0 0-5 11l18 46-37 34a8 8 0 0 0 0 12l36 34-18 46a8 8 0 0 0 6 11l10 3-59 96a8 8 0 0 0 8 12l81-15 14 73a8 8 0 0 0 15 2l56-84 12 20a8 8 0 0 0 11 3l42-28 42 28a8 8 0 0 0 11-3l12-20 56 84a8 8 0 0 0 15-2l14-73 81 7a8 8 0 0 0 8-12zm-363 55l-12-61c-1-4-5-7-9-6l-71 13 52-84 22 7 4 49a8 8 0 0 0 9 7l50-7 5 8-50 74zm192-94l-24 40-40-26c-2-2-6-2-8 0l-40 26-24-40a8 8 0 0 0-8-4l-47 6-4-46c0-3-2-6-5-7l-45-14 16-43c1-3 1-7-2-9l-34-32 34-32c3-2 4-6 2-9l-16-43 45-14c3-1 5-4 5-7l4-46 47 6c3 1 6-1 8-4l24-40 40 26c2 2 6 2 8 0l40-26 24 40c2 3 5 5 8 4l47-6 4 46c0 3 2 6 5 7l46 14-17 43c-2 3-1 7 2 9l34 32-34 32c-3 2-4 6-2 9l16 43-45 14c-3 1-5 4-5 7l-4 46-47-6c-3-1-6 1-8 4zm77 27c-4 0-8 2-9 6l-12 61-50-74 5-8 50 7a8 8 0 0 0 9-7l4-49 22-7 52 78-71-7z"
  />
  <path
    d="M360 168c0-13-11-24-24-24h-56v-32c0-22-18-40-40-40-4 0-8 4-8 8v38l-14 29-26 20c0-4-4-7-8-7h-56c-4 0-8 4-8 8v120c0 4 4 8 8 8h56c4 0 8-4 8-8h120c13 0 24-11 24-24l-3-12 4-3c8-8 9-19 4-29l4-3c8-8 9-19 4-29l4-3c4-4 7-11 7-17zM176 280h-40V176h40v104zm166-106l-6 2h-32v16h24c4 0 8 4 8 8l-2 6-6 2h-32v16h24c4 0 8 4 8 8l-2 6-6 2h-32v16h24c4 0 8 4 8 8l-2 6-6 2H192v-84l37-30 2-2 16-32 1-4V89c10 4 16 13 16 23v40c0 4 4 8 8 8h64c4 0 8 4 8 8l-2 6z"
  />
</svg>