<svg fill="#fff" xmlns="http://www.w3.org/2000/svg" viewBox="0 0 512 512">
  <path
    d="M512 198l-1-3c-1-3-2-5-5-7l-73-51V82c0-7-6-13-13-13h-85l-71-50c-5-3-11-3-15 0l-73 50H92c-7 0-13 6-13 13v54L6 187c-4 3-6 7-6 11v284a13 13 0 0 0 14 13h485c7 0 13-6 13-14V198zm-79-29l42 29-42 29v-58zM256 46l33 23h-66l33-23zM106 95h300v150l-101 70-41-32c-5-3-11-3-16 0l-41 33-101-70V95zm-27 73v60l-43-30 43-30zm-53 55l159 110L27 455l-1-232zm26 246l204-159 204 158-408 1zm275-137l158-110 1 233-159-123z"
  />
  <path
    d="M345 148H167a13 13 0 0 0 0 26h178a13 13 0 0 0 0-26zm0 68H167a13 13 0 0 0 0 26h178a13 13 0 0 0 0-26z"
  />
</svg>
