<svg fill="#fff" viewBox="1 -12 512 511" xmlns="http://www.w3.org/2000/svg">
  <path
    d="M494 147l-81-52V82c0-15-12-27-27-27h-37L270 5c-8-6-20-6-28 0l-79 50h-41c-14 0-27 12-27 27v16l-77 49c-10 4-18 14-18 26v53a7 7 0 1 0 15 0v-40l204 131L15 447V261a7 7 0 1 0-15 0v199c0 15 12 27 27 27h458c15 0 27-12 27-27V173c0-12-8-22-18-26zM293 317l204-131v261zm120-156h72a12 12 0 0 1 4 0c4 2 6 4 7 8l-83 53zm51-15h-51v-33zM110 82c0-7 6-12 12-12h117a7 7 0 0 0 0-15h-48l59-38c3-2 9-2 12 0l59 38h-48a7 7 0 1 0 0 15h113c6 0 12 5 12 12v150l-123 78-13 8c-3 3-9 3-12 0l-140-89zm-87 79h72v59l-79-51c1-4 3-6 7-8zm72-15H48l47-30zm390 326H27c-5 0-10-3-11-8l217-139 9 6a27 27 0 0 0 28 0l9-6 217 139c-1 5-6 8-11 8zm0 0"
  />
  <path
    d="M153 123h206a7 7 0 1 0 0-15H153a7 7 0 0 0 0 15zm0 33h206a7 7 0 1 0 0-15H153a7 7 0 0 0 0 15zm0 0"
  />
</svg>
