<svg viewBox="0 0 512 512" fill="#fff" width="80" xmlns="http://www.w3.org/2000/svg">
  <path
    d="M461 102H350c0-14-6-28-17-38V34a34 34 0 1 0-68 0v30a51 51 0 0 0-18 38H102V85A51 51 0 1 0 0 85v376c0 28 23 51 51 51h410c28 0 51-23 51-51V154c0-29-23-52-51-52zm-42 246l-43-93-51-109 13-11 86 184c5 10 3 22-5 29zm-241 0c-7-7-9-19-5-29l86-184 13 11-50 109zm110-195h21l47 101c-37 14-78 14-115 0zm-6-119a17 17 0 1 1 34 0v20c-11-4-23-4-34 0zm17 34a34 34 0 1 1 0 69 34 34 0 0 1 0-69zM51 51c19 0 34 15 34 34v304a51 51 0 0 0-68 0V85c0-19 15-34 34-34zm444 410c0 19-15 34-34 34H51c-19 0-34-15-34-34v-34a34 34 0 1 1 68 0 9 9 0 0 0 17 0V119h145l-89 193c-9 18-3 40 13 52l-8 16a9 9 0 1 0 16 8l18-39 37-80c42 17 88 17 129 0l38 80 18 39a9 9 0 1 0 15-8l-8-16c17-12 22-34 14-52l-90-193h111c19 0 34 16 34 35zm0 0"
  />
  <path
    d="M294 109l1 1 2 1h3l2-1 1-1 2-1a9 9 0 1 0-11 1zm106 314l-1-2-26-26a9 9 0 0 0-12 12l11 11H225l11-11a9 9 0 0 0-12-12l-25 26a8 8 0 0 0-2 3l-1 2v1a9 9 0 0 0 1 3l2 2v1l25 25a9 9 0 0 0 12-12l-11-11h147l-11 11a9 9 0 1 0 12 12l26-25c2-3 3-6 1-10zM128 179c5 0 9-4 9-8v-17h17a9 9 0 0 0 0-17h-26c-5 0-9 3-9 8v26c0 4 4 8 9 8zm341-42h-25a9 9 0 1 0 0 17h17v17a9 9 0 0 0 17 0v-26c0-5-4-8-9-8zM154 461h-17v-17a9 9 0 0 0-18 0v25c0 5 4 9 9 9h26a9 9 0 0 0 0-17zm315-26c-4 0-8 4-8 9v17h-17a9 9 0 1 0 0 17h25c5 0 9-4 9-9v-25c0-5-4-9-9-9zm0 0"
  />
</svg>
