<svg xmlns="http://www.w3.org/2000/svg" fill="#fff" width="80" viewBox="0 -47 938 937">
  <path
    d="M63 844h750c34 0 62-28 62-62v-47c0-9-7-16-16-16h-31V485h-31v234h-31V500h-32v219H533c-17 0-32 9-39 24-2 5-7 7-11 7h-91c-4 0-9-2-11-7-7-15-22-24-39-24H141V266h297v-31H125c-9 0-16 7-16 15v469H78V250c0-26 21-47 47-47h313v-31H125c-43 0-78 35-78 78v469H16c-9 0-16 7-16 16v47c0 34 28 62 63 62zm-32-94h311c5 0 9 3 11 7 8 15 23 25 39 25h91c16 0 31-10 39-25 2-4 6-7 11-7h311v32c0 17-14 31-31 31H63c-18 0-32-14-32-31zm0 0"
  />
  <path
    d="M172 297h31v31h-31zm0 0M234 297h32v31h-32zm0 0M297 297h31v31h-31zm0 0M469 391v-31H188c-9 0-16 7-16 15v94c0 9 7 16 16 16h375v-32H203v-62zm0 0M172 657h109v31H172zm0 0M313 657h109v31H313zm0 0M453 657h110v31H453zm0 0M594 657h109v31H594zm0 0M422 532c0-9-7-16-16-16h-78c-9 0-15 7-15 16v78c0 8 6 15 15 15h78c9 0 16-7 16-15zm-31 62h-47v-47h47zm0 0M281 532c0-9-7-16-15-16h-78c-9 0-16 7-16 16v78c0 8 7 15 16 15h78c8 0 15-7 15-15zm-31 62h-47v-47h47zm0 0M688 625c8 0 15-7 15-15v-78c0-9-7-16-15-16h-79c-8 0-15 7-15 16v78c0 8 7 15 15 15zm-63-78h47v47h-47zm0 0M563 532c0-9-7-16-16-16h-78c-9 0-16 7-16 16v78c0 8 7 15 16 15h78c9 0 16-7 16-15zm-32 62h-47v-47h47zm0 0M703 0a234 234 0 1 0 0 469 234 234 0 0 0 0-469zm0 438a203 203 0 1 1 0-406 203 203 0 0 1 0 406zm0 0"
  />
  <path
    d="M703 125l21 2-23 15 16 26 53-33a16 16 0 0 0 4-22l-38-53-25 18 12 18a140 140 0 0 0-135 219l26-18a109 109 0 0 1 89-172zm0 0M792 170a109 109 0 0 1-110 170l23-15-17-26-52 33a16 16 0 0 0-5 23l39 52 25-18-13-17a141 141 0 0 0 136-220zm0 0"
  />
</svg>
