<svg version="1" xmlns="http://www.w3.org/2000/svg" viewBox="0 0 512 512">
  <path
    d="M395 0H32C14 0 0 14 0 32v256c0 18 14 32 32 32h139v-21H32c-6 0-11-5-11-11V32c0-6 5-11 11-11h363c6 0 10 5 10 11v192h22V32c0-18-15-32-32-32z"
  />
  <path
    d="M128 309h21v64h-21zM75 256c-6 0-11-5-11-11v-21H43v21c0 18 14 32 32 32h21v-21H75zM43 181h21v21H43zM390 226a116 116 0 1 0-164 164 116 116 0 0 0 164-164zm-82 176a95 95 0 1 1 0-189 95 95 0 0 1 0 189zM509 464l-67-67a11 11 0 0 0-15 0l-30 30c-4 4-4 11 0 15l67 67c2 2 5 3 8 3 2 0 5-1 7-3l30-30c4-4 4-11 0-15zm-37 22l-52-52 14-14 52 52-14 14z"
  />
  <path
    d="M375 390l15-15 37 38-15 15zM309 235v21c30 0 54 24 54 53h21c0-41-33-74-75-74zM107 363h85v21h-85zM160 43a32 32 0 1 0 0 64 32 32 0 0 0 0-64zm0 42a11 11 0 1 1 0-21 11 11 0 0 1 0 21zM235 117a32 32 0 1 0 0 64 32 32 0 0 0 0-64zm0 43a11 11 0 1 1 0-21 11 11 0 0 1 0 21z"
  />
  <path
    d="M88 131l53-53 15 15-53 53zM163 92l15-14 53 53-15 14zM309 43a32 32 0 1 0 0 64 32 32 0 0 0 0-64zm0 42a11 11 0 1 1 0-21 11 11 0 0 1 0 21z"
  />
  <path d="M237 131l53-53 15 15-53 53z" />
</svg>
