<svg viewBox="0 0 496 496" fill="#fff" width="80" xmlns="http://www.w3.org/2000/svg">
  <path
    d="M248 112a24 24 0 1 0 0 48 24 24 0 0 0 0-48zm0 32a8 8 0 1 1 0-16 8 8 0 0 1 0 16zm0 0"
  />
  <path
    d="M392 360c-11 0-23 2-34 5-43-29-38-78-38-79v-6h64a8 8 0 0 0 7-13l-71-102V80v-1l-1-2-1-2-64-72a8 8 0 0 0-12 0l-64 72-1 2-1 2v86l-71 102a8 8 0 0 0 7 13h64v9c2 30-12 60-38 76-11-3-22-5-34-5-57 0-104 41-104 93 0 13 3 27 10 39 1 2 4 4 7 4h462c3 0 6-2 7-4 7-12 10-26 10-39 0-52-47-93-104-93zm-152-80v-80h16v80zm24-96h-32c-4 0-8 3-8 8v88h-32V88h112v192h-32v-88c0-5-4-8-8-8zm105 80h-49v-71zM248 20l46 52h-92zM127 264l49-71v71zm65 32h112c0 30 14 58 37 76-8 4-15 8-21 14-18-15-41-24-64-26v-24a8 8 0 0 0-16 0v24c-23 2-46 11-64 26-6-6-13-10-20-14 23-18 36-46 36-76zm282 184H22c-4-9-6-18-6-27 0-43 39-77 88-77 25 0 49 9 66 26 3 3 9 3 12 0 37-35 95-35 132 0 3 3 9 3 12 0 17-17 41-26 66-26 49 0 88 34 88 77 0 9-2 18-6 27zm0 0"
  />
  <path
    d="M245 319a8 8 0 0 0 9-13c-3-2-6-3-9-1l-3 1-1 3-1 3 2 6 3 1zm0 0M152 440H56a8 8 0 0 0 0 16h96a8 8 0 0 0 0-16zm0 0M184 440h-8a8 8 0 0 0 0 16h8a8 8 0 0 0 0-16zm0 0"
  />
</svg>
