<svg viewBox="-26 0 512 512" fill="#fff" xmlns="http://www.w3.org/2000/svg">
  <path
    d="M457 69l-22-19 22-20c3-3 5-7 3-12-2-4-6-7-10-7h-91V8a8 8 0 1 0-15 0v101l-61 33-3-8-8-17c-6-11-21-16-32-10l-7 3a24 24 0 0 0-10 32l8 17c2 4 5 7 9 10-5 6-7 13-9 21l-2 6a8 8 0 1 0 15 4l1-6c4-11 6-17 12-21l12-6 1-1 1-1 83-44c-1 10-6 20-16 25l-53 33-17 10a8 8 0 0 0 7 13l-12 38-9 4-26 10 8-25a8 8 0 0 0-15-4l-11 40v2l-3 55-1 8-33 70h-24c-15 0-26 11-26 25v22c-3-2-7-3-11-3H51c-14 0-25 12-25 26v27H8a8 8 0 1 0 0 15h442a8 8 0 1 0 0-15h-20V304c0-15-11-26-25-26h-46V147c9-11 12-26 8-40a7 7 0 0 0-8-6V88h91c4 0 8-3 10-7s0-9-3-12zm-221 60c0-2 2-4 4-5l7-4 4-1c3 0 6 2 7 5l9 17c2 4 1 9-3 11l-2 2-6 2c-4 2-9 1-11-3l-9-17v-7zm-16 273l-8-2 8-11zm36-61c4-4 5-9 6-13l3-21a121 121 0 0 0 5 3l4 41h-25zm44-41l-6 51h-5l-4-43c-1-5-4-10-9-12l-8-5 5-28 22 26c4 5 6 8 5 11zm-81 36c2-4 3-9 3-14l2-50 35-14-6 35-6 29c0 3-1 8-3 10l-50 68h-5zM41 470c0-6 4-10 10-10h61c6 0 11 4 11 10v27H41zm97 0v-45c0-6 5-10 11-10h61c6 0 10 4 10 10v72h-82v-27zm277-166v193h-82v-45a8 8 0 1 0-15 0v45h-83V377c0-6 5-11 11-11h61c6 0 11 5 11 11v37a8 8 0 1 0 15 0V304c0-6 5-11 11-11h61c6 0 10 5 10 11zm-71-26c-15 0-26 11-26 26v50l-9-3 6-49c2-10-3-16-8-22l-30-36 18-54 49-30v118zm15-205V26h80l-17 15a11 11 0 0 0 0 17l17 15h-80zm0 0"
  />
</svg>
