<svg width="64" xmlns="http://www.w3.org/2000/svg" fill="#fff" viewBox="0 0 480 480">
  <path
    d="M456 232V56c0-22-18-40-40-40H64c-22 0-40 18-40 40v120c-13 0-24 11-24 24v240c0 13 11 24 24 24h176c13 0 24-11 24-24h67c8 0 15-3 19-9s6-14 4-21l-16-58h46v88c0 13 11 24 24 24h88c13 0 24-11 24-24V256c0-13-11-24-24-24zM208 440c0 4-4 8-8 8H24c-4 0-8-4-8-8v-16h192v16zm0-32H16V232h192v176zm0-192H16v-16c0-4 4-8 8-8h176c4 0 8 4 8 8v16zm91 198c0 2 0 5-2 7s-3 3-6 3h-67v-16h73l2 6zm-75-22v-40h58l11 40h-69zm120-56H224v-48h120v48zm0-80v16H224v-72c0-13-11-24-24-24H40V56c0-13 11-24 24-24h352c13 0 24 11 24 24v176h-72c-13 0-24 11-24 24zm120 184c0 4-4 8-8 8h-88c-4 0-8-4-8-8v-16h104v16zm0-32H360V288h104v120zm0-136H360v-16c0-4 4-8 8-8h88c4 0 8 4 8 8v16z"
  />
  <path
    d="M42 347l32-32 11 11-32 32zM74 370l96-96 12 12-96 96zM90 298l48-48 12 12-48 48zM379 346l40-40 11 11-40 40zM395 378l40-40 11 11-40 40zM210 154l48-48 12 12-48 48zM282 138l48-48 12 12-48 48zM234 187l32-32 11 11-32 32zM274 91l32-32 11 11-32 32zM56 48h16v16H56zM88 48h16v16H88zM120 48h16v16h-16z"
  />
</svg>
