<svg version="1" xmlns="http://www.w3.org/2000/svg" fill="#fff" viewBox="0 0 512 512">
  <path
    d="M373 57a10 10 0 0 0-14 0 10 10 0 0 0 7 17 10 10 0 0 0 10-10c0-3-1-5-3-7zM348 102h-64c-5 0-10 4-10 10v64c0 6 5 10 10 10h64c6 0 10-4 10-10v-64c0-6-4-10-10-10zm-10 64h-44v-44h44v44zM348 214h-64c-5 0-10 4-10 10v64c0 6 5 10 10 10h64c6 0 10-4 10-10v-64c0-6-4-10-10-10zm-10 64h-44v-44h44v44zM316 326h-32c-5 0-10 4-10 10v64a10 10 0 0 0 20 0v-54h22a10 10 0 0 0 0-20zM236 102c-5 0-10 4-10 10v54h-54a10 10 0 0 0 0 20h64c6 0 10-4 10-10v-64c0-6-4-10-10-10zM236 214h-64c-5 0-10 4-10 10v64c0 6 5 10 10 10h64c6 0 10-4 10-10v-64c0-6-4-10-10-10zm-10 64h-44v-44h44v44zM236 326h-64c-5 0-10 4-10 10v64c0 6 5 10 10 10h64c6 0 10-4 10-10v-64c0-6-4-10-10-10zm-10 64h-44v-44h44v44zM263 469a10 10 0 0 0-17 7 10 10 0 0 0 10 10 10 10 0 0 0 10-10c0-2-1-5-3-7z"
  />
  <path
    d="M392 0H120c-17 0-30 13-30 30v4H30C13 34 0 47 0 64v92c0 17 13 30 30 30h92c17 0 30-13 30-30V74h168a10 10 0 0 0 0-20H150c-4-12-15-20-28-20h-12v-4c0-6 4-10 10-10h272c6 0 10 4 10 10v226a10 10 0 0 0 20 0V30c0-17-13-30-30-30zM132 156c0 6-4 10-10 10H30c-6 0-10-4-10-10v-4l2-1 31-32 22 23c4 3 11 3 15 0l42-43v57zM122 54c6 0 10 4 10 10v7l-49 49-23-22c-4-4-10-4-14 0l-26 26V64c0-6 4-10 10-10h92zM482 290H374c-17 0-30 13-30 30v108c0 17 13 30 30 30h28v24c0 6-4 10-10 10H120c-6 0-10-4-10-10v-24h211a10 10 0 0 0 0-20H110V224a10 10 0 0 0-20 0v258c0 17 13 30 30 30h272c17 0 30-13 30-30v-24h60c17 0 30-13 30-30V320c0-17-13-30-30-30zm10 138c0 6-4 10-10 10H374c-6 0-10-4-10-10V320c0-6 4-10 10-10h108c6 0 10 4 10 10v108zM458 102c-5 0-10 4-10 10v80a10 10 0 1 0 20 0v-80c0-6-4-10-10-10zM465 223c-2-2-4-3-7-3s-5 1-7 3c-2 1-3 4-3 7s1 5 3 7 4 3 7 3 5-1 7-3 3-5 3-7-1-5-3-7zM54 231c-6 0-10 4-10 10v69a10 10 0 0 0 20 0v-69c0-6-4-10-10-10z"
  />
  <path
    d="M459 355l-35-20c-7-4-15-4-22 0-6 4-11 11-11 19v40c0 8 5 15 11 19a22 22 0 0 0 22 0l35-20c7-4 11-11 11-19s-4-15-11-19zm-10 21l-35 20h-2l-1-2v-40l1-2h2l35 20 1 2-1 2z"
  />
</svg>
