<svg width="64" viewBox="0 0 512 512" fill="#fff" xmlns="http://www.w3.org/2000/svg">
  <path
    d="M182 186a10 10 0 0 0 10-10 10 10 0 0 0-10-10 10 10 0 0 0-10 10 10 10 0 0 0 10 10zm0 0M218 186a10 10 0 0 0 10-10 10 10 0 0 0-17-7c-2 2-3 5-3 7 0 3 1 5 3 7s4 3 7 3zm0 0M268 186h61a10 10 0 1 0 0-20h-61a10 10 0 1 0 0 20zm0 0M182 246a10 10 0 0 0-10 10 10 10 0 0 0 10 10 10 10 0 0 0 10-10 10 10 0 0 0-10-10zm0 0M218 246a10 10 0 0 0-10 10c0 3 1 5 3 7s4 3 7 3 5-1 7-3a10 10 0 0 0 0-14c-2-2-4-3-7-3zm0 0M329 246h-61a10 10 0 1 0 0 20h61a10 10 0 1 0 0-20zm0 0M256 481a10 10 0 0 0 10-10 10 10 0 0 0-10-10 10 10 0 0 0-10 10 10 10 0 0 0 10 10zm0 0"
  />
  <path
    d="M482 348h-45v-52c0-5-4-10-10-10h-51c2-3 2-6 2-10v-10h11a82 82 0 0 0 4-164c-12-43-44-78-86-94a10 10 0 1 0-7 19c38 14 67 48 75 87 1 5 6 8 10 8h4a62 62 0 0 1 0 124h-11v-10c0-7-3-14-8-20 5-5 8-12 8-20v-40c0-16-13-30-30-30H164c-16 0-30 14-30 30v40c0 8 3 15 8 20-5 6-8 13-8 20v10h-32a42 42 0 0 1-15-80c4-2 7-7 6-11l-1-10a42 42 0 0 1 46-41c4 0 9-2 10-7 12-32 38-57 70-70a10 10 0 1 0-7-18c-36 13-64 40-79 75a62 62 0 0 0-60 67 62 62 0 0 0 30 115h32v10l2 10H85c-5 0-10 5-10 10v68H42c-19 0-34 15-34 34v54c-5 1-8 5-8 10v12c0 21 17 38 38 38h94c21 0 38-17 38-38v-12c0-5-3-9-8-10v-54c0-19-15-34-34-34H95v-58h151v66h-16c-18 0-32 14-32 32v77c0 17 14 31 32 31h53c17 0 31-14 31-31v-77c0-18-14-32-31-32h-17v-66h151v42h-45c-17 0-30 13-30 30v64c0 17 13 30 30 30h23v20h-22a10 10 0 1 0 0 20h108a10 10 0 1 0 0-20h-22v-20h23c17 0 30-13 30-30v-64c0-17-13-30-30-30zM150 474c0 10-8 18-18 18H38c-10 0-18-8-18-18v-2h130zm-8-76v54H28v-54c0-8 6-14 14-14h86c8 0 14 6 14 14zm152 6v77c0 6-5 11-11 11h-53c-7 0-12-5-12-11v-77c0-7 5-12 12-12h53c6 0 11 5 11 12zM154 156c0-5 5-10 10-10h184c6 0 10 5 10 10v40c0 6-4 10-10 10H164c-5 0-10-4-10-10zm136 130H164c-5 0-10-4-10-10v-40c0-5 5-10 10-10h184c6 0 10 5 10 10v40c0 6-4 10-10 10zm149 206h-24v-20h24zm53-50c0 6-4 10-10 10H372c-6 0-10-4-10-10v-64c0-6 4-10 10-10h110c6 0 10 4 10 10zm0 0"
  />
  <path
    d="M259 20a10 10 0 0 0 10-10 10 10 0 0 0-10-10 10 10 0 0 0-10 10 10 10 0 0 0 10 10zm0 0"
  />
</svg>
