<svg xmlns="http://www.w3.org/2000/svg" viewBox="0 0 480 480" fill="#fff">
  <path
    d="M364 0H44C22 0 4 18 4 40v256c0 18 12 34 30 39l4-16c-11-2-18-12-18-23V40c0-13 11-24 24-24h320c13 0 24 11 24 24v8h16v-8c0-22-18-40-40-40z"
  />
  <path
    d="M36 32h16v16H36zM68 32h16v16H68zM100 32h16v16h-16zM474 442l-76-76c4-7 7-14 9-22h13v-16h-9c3-19 0-39-7-57v-79h-16v51l-16-17v-66h-16v55l-16-7v-80h-16v75l-16-3v-56h-16v56l-16 3v-27h-16v32l-16 7v-47h-16v58l-16 17v-59h-16v87c-7 18-10 38-7 57H84v16h109a112 112 0 0 0 171 60l74 74c3 3 9 3 12 0l24-24c3-3 3-9 0-12zm-174-34a96 96 0 1 1 0-192 96 96 0 0 1 0 192zm144 53l-67-68 12-13 68 68-13 13z"
  />
  <path
    d="M300 232a80 80 0 1 0 0 160 80 80 0 0 0 0-160zm0 144c-23 0-44-12-55-32h110a64 64 0 0 1-55 32zm-62-48c-6-24 2-50 22-66v50h16v-59c5-2 11-4 16-4v63h16v-63c5 0 11 2 16 4v59h16v-50c20 16 28 42 22 66H238z"
  />
  <path
    d="M412 64H92c-22 0-40 18-40 40v256c0 22 18 40 40 40h104v-16H92c-13 0-24-11-24-24V104c0-13 11-24 24-24h320c13 0 24 11 24 24v256c0 6-2 11-6 16l12 10c6-7 10-16 10-26V104c0-22-18-40-40-40z"
  />
  <path
    d="M84 96h16v16H84zM116 96h16v16h-16zM148 96h16v16h-16zM100 264h16v48h-16zM132 216h16v96h-16zM164 240h16v72h-16z"
  />
</svg>
