<svg xmlns="http://www.w3.org/2000/svg" fill="#fff" viewBox="0 0 60 60">
  <path
    d="M51.77 44c.32-1.69.3-3.42-.03-5.1l4.58-11.05v-.03a18.78 18.78 0 0 1 3.22-5.58c.34-.36.48-.87.37-1.36l-1.88-8.11a.98.98 0 0 0-.1-.24l-.02-.05c0-.02-.04-.05-.06-.08a1 1 0 0 0-.14-.16.93.93 0 0 0-.11-.07l-.16-.09a.99.99 0 0 0-.23-.06l-.07-.01a1 1 0 0 0-.55.12l-.05.02-7.07 4.4c-.42.27-.69.73-.7 1.24-.2 2.16-.77 4.26-1.68 6.23v.01l-2.3 5.53a13.41 13.41 0 0 0-3.56-1.29c.47-3.25.64-6.54.51-9.83a10.91 10.91 0 0 0 2.48-8.01C43.6 4.6 38.34.39 38.12.2a1 1 0 0 0-1.59 1.05c.52 1.93.07 3.97-3.73 8.17a5.85 5.85 0 0 0-1.37 6.38c.33.84.82 1.62 1.42 2.3-.24 1.54-.43 3-.56 4.43a50.08 50.08 0 0 0-.18 7.1 13.6 13.6 0 0 0-2.49 1.73l-4.85-20.74-.02-.06a.95.95 0 0 0-.07-.2L19.7 1.24a2.3 2.3 0 0 0-4.33 1.02L15 12.64c0 .08 0 .15.03.22v.05l4.94 21.11c-.78.04-1.55.16-2.3.35l-5.45-13.14c-.44-1.01-1.6-1.48-2.61-1.07L1.29 23.6A2 2 0 0 0 .2 26.21l7.38 17.81A8 8 0 0 0 8 60h44a8 8 0 1 0-.23-16zm-1.02-25.88l4.2-2.62-1.5 3.58a1 1 0 0 0 1.85.77l1.49-3.58 1.11 4.8a19.78 19.78 0 0 0-2.9 4.8 4.11 4.11 0 0 1-5.59-2.32c.7-1.74 1.15-3.57 1.34-5.43zm-2.3 7.85a6.1 6.1 0 0 0 2.5 1.81 6.35 6.35 0 0 0 3.04.48l-3.19 7.7a13.57 13.57 0 0 0-4.29-5.3l1.94-4.7zm-13.7-7.14l5.02.3c.03.94.02 1.9 0 2.88-1.68.12-3.36.04-5.02-.24l-.37-.05c.1-.94.22-1.9.37-2.9zm-.48-8.06c2.66-2.93 4.03-5.18 4.35-7.3a13.37 13.37 0 0 1 3.61 7.17 8.96 8.96 0 0 1-2.02 6.51l-5.86-.36a4.17 4.17 0 0 1-.08-6.02zm-.07 12.95l.29.03c1.28.2 2.59.31 3.89.33.41 0 .85-.03 1.29-.06-.1 1.28-.24 2.63-.43 4.02a13.4 13.4 0 0 0-5.17.73c-.05-1.7 0-3.38.12-5.05zM26.46 35.4L23.6 23.22a1 1 0 0 0-1.95.46l2.57 10.97c-.7-.26-1.43-.44-2.18-.55l-4.38-18.73c.61.28 1.28.43 1.95.43l.2-.01.7 3.02a1 1 0 1 0 1.95-.46l-.7-3.02c.67-.3 1.27-.76 1.74-1.33l4.46 19.08c-.58.72-1.08 1.5-1.5 2.33zm-6.1-21.7A3.32 3.32 0 0 1 17 12.37l.13-3.52c.35.06.7.1 1.05.1a4.46 4.46 0 0 0 2.87-1.03l1.69 3.1a3.32 3.32 0 0 1-2.4 2.7v-.01zM17.6 2.03c.14-.03.28.03.35.15l2.14 3.97c-.39.35-.85.6-1.35.75a3.4 3.4 0 0 1-1.54-.08l.16-4.5c0-.14.1-.26.24-.3zM10.38 22l.76 1.85-3.7 1.53a1 1 0 0 0 .77 1.84l3.7-1.53.76 1.85-1.85.77a1 1 0 1 0 .77 1.84l1.85-.76.76 1.84-3.7 1.54a1 1 0 1 0 .77 1.85l3.7-1.53.8 1.95a11.6 11.6 0 0 0-6.47 7.88L2.05 25.44 10.37 22zM52 58H8a6 6 0 1 1 1.71-11.75A1 1 0 0 0 11 45.3a9.5 9.5 0 0 1 15.2-7.41 1 1 0 0 0 1.53-.45 11.5 11.5 0 0 1 21.76 7.42 1 1 0 0 0 1.17 1.28A6 6 0 1 1 52 58z"
  />
  <path
    d="M38.69 15.7a1 1 0 0 0 .8-.4 7.5 7.5 0 0 0 1.32-5.88 1 1 0 1 0-1.93.51 5.56 5.56 0 0 1-.99 4.17 1 1 0 0 0 .8 1.6zM37.37 46c-.74 0-1.48.17-2.14.5a6 6 0 0 0-10.37 5.89 1 1 0 0 0 1.84-.78 4 4 0 0 1 7.36-3.21l.05.1.06.05.16.13.16.1.18.05.18.03c.13 0 .26-.02.39-.06l.08-.02a.9.9 0 0 0 .09-.07l.1-.05a3 3 0 0 1 4.58 1.09 1 1 0 0 0 1.82-.84A5 5 0 0 0 37.37 46zM17.68 39.05C17.53 39.1 14 40.32 14 44a1 1 0 0 0 2 0c.08-1.4 1-2.6 2.32-3.05a1 1 0 0 0-.64-1.9zM31.76 37.97L32 38a1 1 0 0 0 .97-.76A4.27 4.27 0 0 1 37 34a1 1 0 0 0-.01-2c-2.84.04-5.3 2-5.97 4.76a1 1 0 0 0 .73 1.21z"
  />
</svg>
