<svg viewBox="0 0 496 496" xmlns="http://www.w3.org/2000/svg" fill="#fff">
  <path
    d="M476 100c-2-10-6-20-11-29l9-18-31-31-18 9c-9-5-19-9-29-11l-6-20h-44l-6 20c-10 2-20 6-29 11l-18-9-31 31 9 18c-5 9-9 19-11 29l-20 6v22H40c-22 0-40 18-40 40v240c0 22 18 40 40 40h104v32h-32v16h272v-16h-32v-32h104c22 0 40-18 40-40V106zM336 480H160v-32h176zm120-48H40c-13 0-24-11-24-24v-8h464v8c0 13-11 24-24 24zm24-48H16V168c0-13 11-24 24-24h200v6l20 6c2 10 6 20 11 29l-9 18 31 31 18-9c9 5 19 9 29 11l6 20h44l6-20c10-2 20-6 29-11l18 9 31-31-9-18c5-9 9-19 11-29l4-1zm0-246l-17 6-1 4c-3 12-7 22-13 32l-3 4 8 16-14 14-16-8-4 3c-10 6-20 10-32 13l-4 1-6 17h-20l-6-17-4-1c-12-3-22-7-32-13l-4-3-16 8-14-14 8-16-3-4c-6-10-10-20-13-32l-1-4-17-6v-20l17-6 1-4c3-12 7-22 13-32l3-4-8-16 14-14 16 8 4-3c10-6 20-10 32-13l4-1 6-17h20l6 17 4 1c12 3 22 7 32 13l4 3 16-8 14 14-8 16 3 4c6 10 10 20 13 32l1 4 17 6zm0 0"
  />
  <path
    d="M368 48a80 80 0 1 0 0 160 80 80 0 0 0 0-160zm0 144a64 64 0 1 1 0-128 64 64 0 0 1 0 128zm0 0"
  />
  <path
    d="M368 96a32 32 0 1 0 0 64 32 32 0 0 0 0-64zm0 48a16 16 0 1 1 0-32 16 16 0 0 1 0 32zm0 0M48 192v8c0 9-7 16-16 16v16c9 0 16 7 16 16v8c0 13 11 24 24 24h8v-16h-8c-4 0-8-4-8-8v-8c0-10-4-18-11-24 7-6 11-14 11-24v-8c0-4 4-8 8-8h8v-16h-8c-13 0-24 11-24 24zm0 0M296 272v-8c0-13-11-24-24-24h-8v16h8c4 0 8 4 8 8v8c0 10 4 18 11 24-7 6-11 14-11 24v8c0 4-4 8-8 8h-8v16h8c13 0 24-11 24-24v-8c0-9 7-16 16-16v-16c-9 0-16-7-16-16zm0 0M96 176h152v16H96zm0 0M128 208h120v16H128zm0 0M96 208h16v16H96zm0 0M96 240h152v16H96zm0 0M96 272h152v16H96zm0 0M232 304h16v16h-16zm0 0M96 304h120v16H96zm0 0M96 336h152v16H96zm0 0"
  />
</svg>
