<svg viewBox="0 0 496 496" xmlns="http://www.w3.org/2000/svg" fill="#fff">
  <path d="M48 160h32v16H48zm0 0" />
  <path
    d="M472 128c13 0 24-11 24-24V24c0-13-11-24-24-24H360c-13 0-24 11-24 24v80c0 13 11 24 24 24h24v16h-16v16h40v80h-33c-6-6-14-11-23-14v-2a64 64 0 0 0-118-34 64 64 0 0 0-86 35l-17 7H72v-24h32c13 0 24-11 24-24V24c0-13-11-24-24-24H24C11 0 0 11 0 24v160c0 13 11 24 24 24h32v40h58c-3 5-6 10-7 16H72v88H40c-13 0-24 11-24 24v72H0v24c0 13 11 24 24 24h128c13 0 24-11 24-24v-24h-16v-72c0-13-11-24-24-24H88v-72h16c0 31 25 56 56 56h176c28 0 51-21 55-48h33v64h-56v144h128V352h-56v-80h-49c-1-6-2-11-5-16h38v-96h40v-16h-16v-16zm-360 0H16V48h96zM24 16h80c4 0 8 4 8 8v8H16v-8c0-4 4-8 8-8zm-8 168v-40h96v40c0 4-4 8-8 8H24c-4 0-8-4-8-8zm144 288c0 4-4 8-8 8H24c-4 0-8-4-8-8v-8h144zm-16-96v72H32v-72c0-4 4-8 8-8h96c4 0 8 4 8 8zm240 104v-48h96v48zm96-64h-96v-48h96zm-144-96H160a40 40 0 0 1-5-80h5l2-5a48 48 0 0 1 71-28l8 5 4-8c7-17 24-28 43-28a48 48 0 0 1 47 55l-1 8 8 2c19 2 34 19 34 39 0 22-18 40-40 40zm24-304h112c4 0 8 4 8 8v56H352V24c0-4 4-8 8-8zm-8 88v-8h128v8c0 4-4 8-8 8H360c-4 0-8-4-8-8zm80 40h-32v-16h32zm0 0"
  />
  <path
    d="M400 384h16v16h-16zm0 0M448 448h16v16h-16zm0 0M432 384h32v16h-32zm0 0M400 448h32v16h-32zm0 0"
  />
</svg>
